<svg id="visual" viewBox="0 0 1920 1080" width="1920" height="1080" xmlns="http://www.w3.org/2000/svg" xmlns:xlink="http://www.w3.org/1999/xlink" version="1.1">
    <rect x="0" y="0" width="1920" height="1080" fill="#083344"></rect>
    <path id="wave" fill="#001F2E" stroke-linecap="round" stroke-linejoin="miter" d="M0 765L45.7 790.8C91.3 816.7 182.7 868.3 274.2 893.8C365.7 919.3 457.3 918.7 548.8 897C640.3 875.3 731.7 832.7 823 832.5C914.3 832.3 1005.7 874.7 1097 884C1188.3 893.3 1279.7 869.7 1371.2 843.2C1462.7 816.7 1554.3 787.3 1645.8 781.3C1737.3 775.3 1828.7 792.7 1874.3 801.3L1920 810L1920 1081L1874.3 1081C1828.7 1081 1737.3 1081 1645.8 1081C1554.3 1081 1462.7 1081 1371.2 1081C1279.7 1081 1188.3 1081 1097 1081C1005.7 1081 914.3 1081 823 1081C731.7 1081 640.3 1081 548.8 1081C457.3 1081 365.7 1081 274.2 1081C182.7 1081 91.3 1081 45.7 1081L0 1081Z">
        <animate attributeName="d" 
                 values="
                    M0 765L45.7 790.8C91.3 816.7 182.7 868.3 274.2 893.8C365.7 919.3 457.3 918.7 548.8 897C640.3 875.3 731.7 832.7 823 832.5C914.3 832.3 1005.7 874.7 1097 884C1188.3 893.3 1279.7 869.7 1371.2 843.2C1462.7 816.7 1554.3 787.3 1645.8 781.3C1737.3 775.3 1828.7 792.7 1874.3 801.3L1920 810L1920 1081L1874.3 1081C1828.7 1081 1737.3 1081 1645.8 1081C1554.3 1081 1462.7 1081 1371.2 1081C1279.7 1081 1188.3 1081 1097 1081C1005.7 1081 914.3 1081 823 1081C731.7 1081 640.3 1081 548.8 1081C457.3 1081 365.7 1081 274.2 1081C182.7 1081 91.3 1081 45.7 1081L0 1081Z;
                    M0 765L45.7 820C91.3 860 182.7 910 274.2 935C365.7 960 457.3 960 548.8 940C640.3 920 731.7 880 823 875C914.3 870 1005.7 910 1097 920C1188.3 930 1279.7 905 1371.2 870C1462.7 835 1554.3 805 1645.8 800C1737.3 795 1828.7 815 1874.3 830L1920 835L1920 1081L1874.3 1081C1828.7 1081 1737.3 1081 1645.8 1081C1554.3 1081 1462.7 1081 1371.2 1081C1279.7 1081 1188.3 1081 1097 1081C1005.7 1081 914.3 1081 823 1081C731.7 1081 640.3 1081 548.8 1081C457.3 1081 365.7 1081 274.2 1081C182.7 1081 91.3 1081 45.7 1081L0 1081Z;
                    M0 765L45.7 800C91.3 835 182.7 895 274.2 920C365.7 945 457.3 940 548.8 920C640.3 900 731.7 860 823 860C914.3 860 1005.7 900 1097 920C1188.3 940 1279.7 915 1371.2 880C1462.7 845 1554.3 815 1645.8 810C1737.3 805 1828.7 825 1874.3 840L1920 845L1920 1081L1874.3 1081C1828.7 1081 1737.3 1081 1645.8 1081C1554.3 1081 1462.7 1081 1371.2 1081C1279.7 1081 1188.3 1081 1097 1081C1005.7 1081 914.3 1081 823 1081C731.7 1081 640.3 1081 548.8 1081C457.3 1081 365.7 1081 274.2 1081C182.7 1081 91.3 1081 45.7 1081L0 1081Z;
                    M0 765L45.7 790.8C91.3 816.7 182.7 868.3 274.2 893.8C365.7 919.3 457.3 918.7 548.8 897C640.3 875.3 731.7 832.7 823 832.5C914.3 832.3 1005.7 874.7 1097 884C1188.3 893.3 1279.7 869.7 1371.2 843.2C1462.7 816.7 1554.3 787.3 1645.8 781.3C1737.3 775.3 1828.7 792.7 1874.3 801.3L1920 810L1920 1081L1874.3 1081C1828.7 1081 1737.3 1081 1645.8 1081C1554.3 1081 1462.7 1081 1371.2 1081C1279.7 1081 1188.3 1081 1097 1081C1005.7 1081 914.3 1081 823 1081C731.7 1081 640.3 1081 548.8 1081C457.3 1081 365.7 1081 274.2 1081C182.7 1081 91.3 1081 45.7 1081L0 1081Z" 
                 dur="4s" repeatCount="indefinite"/>
    </path>
</svg>
